<?xml version="1.0" standalone="no"?>
<!DOCTYPE svg PUBLIC "-//W3C//DTD SVG 20010904//EN"
 "http://www.w3.org/TR/2001/REC-SVG-20010904/DTD/svg10.dtd">
<svg version="1.0" xmlns="http://www.w3.org/2000/svg"
 width="350.000000pt" height="350.000000pt" viewBox="0 0 350.000000 350.000000"
 preserveAspectRatio="xMidYMid meet">
<metadata>
Created by potrace 1.16, written by Peter Selinger 2001-2019
</metadata>
<g transform="translate(0.000000,350.000000) scale(0.100000,-0.100000)"
fill="#000000" stroke="none">
<path d="M560 2202 c0 -4 -9 -95 -20 -202 -11 -107 -20 -197 -20 -202 0 -13
-72 -21 -91 -9 -26 16 -27 15 -39 -26 -42 -142 134 -151 341 -18 61 40 258
202 287 237 7 9 -52 -27 -130 -80 -244 -163 -404 -225 -453 -176 -18 19 -17
19 36 25 70 8 183 61 284 133 112 81 123 95 32 42 -96 -57 -178 -99 -183 -94
-5 6 22 288 29 294 8 8 570 -36 579 -45 5 -4 3 -91 -4 -194 -10 -159 -14 -187
-27 -187 -38 0 -326 23 -331 27 -2 2 41 47 95 99 55 52 93 92 85 88 -25 -13
-319 -224 -324 -233 -3 -5 9 -11 27 -14 50 -9 527 -50 531 -46 2 2 9 94 15
204 6 110 13 230 16 268 l5 67 -28 0 c-15 0 -165 11 -332 25 -330 27 -380 29
-380 17z"/>
<path d="M1430 1885 l0 -127 56 4 c82 7 99 28 99 123 0 95 -17 116 -99 123
l-56 4 0 -127z"/>
<path d="M1630 1885 l0 -125 70 0 c63 0 70 2 70 20 0 17 -7 20 -45 20 -45 0
-45 0 -45 35 0 33 2 35 35 35 28 0 35 4 35 20 0 16 -7 20 -35 20 -32 0 -35 2
-35 30 0 29 2 30 45 30 38 0 45 3 45 20 0 18 -7 20 -70 20 l-70 0 0 -125z"/>
<path d="M1795 1983 c3 -16 18 -71 33 -123 25 -85 31 -95 52 -98 24 -2 27 4
61 123 l36 125 -26 0 c-25 0 -27 -4 -45 -85 -10 -47 -23 -85 -27 -85 -5 0 -9
6 -9 14 0 7 -7 46 -16 85 -15 65 -18 71 -41 71 -22 0 -24 -3 -18 -27z"/>
<path d="M2090 1885 c0 -118 1 -125 20 -125 17 0 20 7 20 45 0 34 4 45 15 45
9 0 24 -20 35 -45 15 -36 24 -45 44 -45 l25 0 -21 47 c-19 43 -19 48 -4 74 41
70 3 129 -85 129 l-49 0 0 -125z"/>
<path d="M2395 1985 c-43 -43 -25 -85 54 -127 21 -12 31 -24 29 -35 -5 -26
-44 -28 -60 -4 -7 12 -21 21 -30 21 -27 0 -22 -35 8 -59 51 -40 124 -17 124
40 0 44 -15 65 -60 83 -28 11 -40 22 -40 36 0 31 30 37 51 12 21 -26 49 -29
49 -4 0 23 -10 37 -37 51 -34 17 -62 13 -88 -14z"/>
<path d="M2560 1885 l0 -125 25 0 c24 0 25 3 25 55 l0 55 40 0 40 0 0 -55 c0
-48 2 -55 20 -55 19 0 20 7 20 125 0 118 -1 125 -20 125 -17 0 -20 -7 -20 -50
l0 -50 -40 0 -40 0 0 50 c0 47 -2 50 -25 50 l-25 0 0 -125z"/>
<path d="M515 1627 c-9 -30 -65 -280 -63 -282 3 -3 824 -66 846 -65 10 0 12 8
8 28 -4 15 -12 78 -20 140 -8 62 -15 115 -17 117 -2 2 -153 17 -334 34 -182
17 -349 33 -373 36 -29 3 -44 1 -47 -8z m404 -102 c150 -13 275 -26 277 -28 6
-6 26 -129 22 -133 -2 -1 -143 8 -313 22 -171 13 -321 24 -334 24 -22 0 -23 2
-16 48 13 90 14 92 54 92 20 0 159 -11 310 -25z"/>
</g>
</svg>
